<svg id="visual" preserveAspectRatio="none" viewBox="0 0 900 600" width="900" height="600" xmlns="http://www.w3.org/2000/svg" xmlns:xlink="http://www.w3.org/1999/xlink" version="1.1"><rect x="0" y="0" width="900" height="600"></rect><path d="M0 189L18.8 200.5C37.7 212 75.3 235 112.8 231.8C150.3 228.7 187.7 199.3 225.2 191.2C262.7 183 300.3 196 337.8 209.8C375.3 223.7 412.7 238.3 450.2 245C487.7 251.7 525.3 250.3 562.8 238.2C600.3 226 637.7 203 675.2 190.5C712.7 178 750.3 176 787.8 185.3C825.3 194.7 862.7 215.3 881.3 225.7L900 236L900 0L881.3 0C862.7 0 825.3 0 787.8 0C750.3 0 712.7 0 675.2 0C637.7 0 600.3 0 562.8 0C525.3 0 487.7 0 450.2 0C412.7 0 375.3 0 337.8 0C300.3 0 262.7 0 225.2 0C187.7 0 150.3 0 112.8 0C75.3 0 37.7 0 18.8 0L0 0Z" fill="#254ea0"></path><path d="M0 201L18.8 196.2C37.7 191.3 75.3 181.7 112.8 180.2C150.3 178.7 187.7 185.3 225.2 185.3C262.7 185.3 300.3 178.7 337.8 170.3C375.3 162 412.7 152 450.2 141.8C487.7 131.7 525.3 121.3 562.8 117.8C600.3 114.3 637.7 117.7 675.2 129.2C712.7 140.7 750.3 160.3 787.8 174.7C825.3 189 862.7 198 881.3 202.5L900 207L900 0L881.3 0C862.7 0 825.3 0 787.8 0C750.3 0 712.7 0 675.2 0C637.7 0 600.3 0 562.8 0C525.3 0 487.7 0 450.2 0C412.7 0 375.3 0 337.8 0C300.3 0 262.7 0 225.2 0C187.7 0 150.3 0 112.8 0C75.3 0 37.7 0 18.8 0L0 0Z" fill="#2d5bb7"></path><path d="M0 142L18.8 137.8C37.7 133.7 75.3 125.3 112.8 117.2C150.3 109 187.7 101 225.2 105.3C262.7 109.7 300.3 126.3 337.8 133.3C375.3 140.3 412.7 137.7 450.2 136.2C487.7 134.7 525.3 134.3 562.8 135.2C600.3 136 637.7 138 675.2 132C712.7 126 750.3 112 787.8 107.7C825.3 103.3 862.7 108.7 881.3 111.3L900 114L900 0L881.3 0C862.7 0 825.3 0 787.8 0C750.3 0 712.7 0 675.2 0C637.7 0 600.3 0 562.8 0C525.3 0 487.7 0 450.2 0C412.7 0 375.3 0 337.8 0C300.3 0 262.7 0 225.2 0C187.7 0 150.3 0 112.8 0C75.3 0 37.7 0 18.8 0L0 0Z" fill="#3468ce"></path><path d="M0 52L18.8 52.5C37.7 53 75.3 54 112.8 56C150.3 58 187.7 61 225.2 68.7C262.7 76.3 300.3 88.7 337.8 87.5C375.3 86.3 412.7 71.7 450.2 73.3C487.7 75 525.3 93 562.8 92.5C600.3 92 637.7 73 675.2 69.3C712.7 65.7 750.3 77.3 787.8 77.8C825.3 78.3 862.7 67.7 881.3 62.3L900 57L900 0L881.3 0C862.7 0 825.3 0 787.8 0C750.3 0 712.7 0 675.2 0C637.7 0 600.3 0 562.8 0C525.3 0 487.7 0 450.2 0C412.7 0 375.3 0 337.8 0C300.3 0 262.7 0 225.2 0C187.7 0 150.3 0 112.8 0C75.3 0 37.7 0 18.8 0L0 0Z" fill="#3b75e6"></path><path d="M0 77L18.8 71.7C37.7 66.3 75.3 55.7 112.8 48.5C150.3 41.3 187.7 37.7 225.2 40.3C262.7 43 300.3 52 337.8 53.5C375.3 55 412.7 49 450.2 50C487.7 51 525.3 59 562.8 64.2C600.3 69.3 637.7 71.7 675.2 66.2C712.7 60.7 750.3 47.3 787.8 40.8C825.3 34.3 862.7 34.7 881.3 34.8L900 35L900 0L881.3 0C862.7 0 825.3 0 787.8 0C750.3 0 712.7 0 675.2 0C637.7 0 600.3 0 562.8 0C525.3 0 487.7 0 450.2 0C412.7 0 375.3 0 337.8 0C300.3 0 262.7 0 225.2 0C187.7 0 150.3 0 112.8 0C75.3 0 37.7 0 18.8 0L0 0Z" fill="#4383ff"></path></svg>
