<svg id="visual" viewBox="0 0 900 600" width="900" height="600" xmlns="http://www.w3.org/2000/svg" xmlns:xlink="http://www.w3.org/1999/xlink" version="1.1"><path d="M0 213L100 213L100 199L200 199L200 214L300 214L300 209L400 209L400 211L500 211L500 178L600 178L600 232L700 232L700 223L800 223L800 207L900 207L900 196L900 0L900 0L800 0L800 0L700 0L700 0L600 0L600 0L500 0L500 0L400 0L400 0L300 0L300 0L200 0L200 0L100 0L100 0L0 0Z" fill="#4383ff"></path><path d="M0 135L100 135L100 159L200 159L200 152L300 152L300 160L400 160L400 141L500 141L500 113L600 113L600 129L700 129L700 166L800 166L800 131L900 131L900 120L900 0L900 0L800 0L800 0L700 0L700 0L600 0L600 0L500 0L500 0L400 0L400 0L300 0L300 0L200 0L200 0L100 0L100 0L0 0Z" fill="#3468ce"></path><path d="M0 82L100 82L100 73L200 73L200 60L300 60L300 47L400 47L400 74L500 74L500 63L600 63L600 97L700 97L700 98L800 98L800 92L900 92L900 79L900 0L900 0L800 0L800 0L700 0L700 0L600 0L600 0L500 0L500 0L400 0L400 0L300 0L300 0L200 0L200 0L100 0L100 0L0 0Z" fill="#254ea0"></path></svg>