<svg id="visual" viewBox="0 0 900 600" width="900" height="600" xmlns="http://www.w3.org/2000/svg" xmlns:xlink="http://www.w3.org/1999/xlink" version="1.1"><path d="M0 173L100 173L100 197L200 197L200 174L300 174L300 212L400 212L400 169L500 169L500 169L600 169L600 214L700 214L700 169L800 169L800 231L900 231L900 234L900 0L900 0L800 0L800 0L700 0L700 0L600 0L600 0L500 0L500 0L400 0L400 0L300 0L300 0L200 0L200 0L100 0L100 0L0 0Z" fill="#254ea0"></path><path d="M0 166L100 166L100 162L200 162L200 107L300 107L300 124L400 124L400 150L500 150L500 108L600 108L600 157L700 157L700 118L800 118L800 131L900 131L900 145L900 0L900 0L800 0L800 0L700 0L700 0L600 0L600 0L500 0L500 0L400 0L400 0L300 0L300 0L200 0L200 0L100 0L100 0L0 0Z" fill="#3468ce"></path><path d="M0 73L100 73L100 96L200 96L200 55L300 55L300 69L400 69L400 83L500 83L500 54L600 54L600 51L700 51L700 73L800 73L800 101L900 101L900 83L900 0L900 0L800 0L800 0L700 0L700 0L600 0L600 0L500 0L500 0L400 0L400 0L300 0L300 0L200 0L200 0L100 0L100 0L0 0Z" fill="#4383ff"></path></svg>